<svg width="17" height="20" viewBox="0 0 17 20"  xmlns="http://www.w3.org/2000/svg">
<path d="M9.32804 1.74045C10.6176 0.00844391 12.4103 0 12.4103 0C12.4103 0 12.677 1.62838 11.3959 3.19703C10.028 4.872 8.47326 4.59792 8.47326 4.59792C8.47326 4.59792 8.18131 3.28061 9.32804 1.74045ZM8.63727 5.73859C9.30067 5.73859 10.5319 4.80931 12.1345 4.80931C14.8932 4.80931 15.9784 6.80964 15.9784 6.80964C15.9784 6.80964 13.8559 7.91552 13.8559 10.5989C13.8559 13.626 16.5 14.6692 16.5 14.6692C16.5 14.6692 14.6517 19.9706 12.1551 19.9706C11.0084 19.9706 10.1169 19.1832 8.90874 19.1832C7.6775 19.1832 6.45568 20 5.6599 20C3.38013 20.0001 0.5 14.9711 0.5 10.9286C0.5 6.95141 2.93784 4.86503 5.22444 4.86503C6.71094 4.86503 7.86447 5.73859 8.63727 5.73859Z" />
</svg>
