<svg width="21" height="24" viewBox="0 0 21 24" fill="none" xmlns="http://www.w3.org/2000/svg">
<path d="M11.9302 2.39497L11.9302 2.39496C12.6643 1.44835 13.5382 0.975457 14.2288 0.737617C14.4908 0.647361 14.7258 0.591257 14.9154 0.556431C14.9112 0.717195 14.8964 0.91235 14.8608 1.13265C14.7558 1.78324 14.4703 2.6529 13.7391 3.51245L14.1199 3.83643L13.7391 3.51246C12.9589 4.42955 12.1413 4.7981 11.5346 4.94468C11.2967 5.00218 11.0885 5.02606 10.925 5.03408C10.9248 4.90544 10.9329 4.74744 10.9584 4.56563C11.0353 4.01849 11.2712 3.24461 11.9302 2.39497ZM19.1286 8.03239C18.8581 8.22396 18.5044 8.51063 18.1504 8.90244C17.424 9.70657 16.6948 10.958 16.6948 12.7187C16.6948 14.7063 17.6054 16.0523 18.5073 16.8895C18.9556 17.3057 19.4029 17.5979 19.7386 17.7865C19.7823 17.8111 19.8241 17.8339 19.8639 17.8551C19.8029 18.0039 19.7257 18.1864 19.6334 18.3938C19.3736 18.9778 18.9969 19.7526 18.5275 20.524C18.056 21.299 17.5034 22.0496 16.8975 22.6009C16.2881 23.1554 15.6739 23.4648 15.0688 23.4648C14.4552 23.4648 13.9011 23.2641 13.2403 23.0227L13.235 23.0207C12.5973 22.7877 11.8642 22.5198 11.0109 22.5198C10.1469 22.5198 9.30731 22.7938 8.61077 23.0381C8.53043 23.0663 8.45243 23.0939 8.37649 23.1208C8.11147 23.2148 7.87151 23.2998 7.64431 23.3678C7.35118 23.4555 7.12491 23.5 6.94987 23.5C6.40971 23.5 5.76376 23.2087 5.06783 22.6039C4.38043 22.0066 3.6953 21.1465 3.08618 20.121C1.865 18.065 1 15.4309 1 13.1143C1 8.57533 3.86412 6.33804 6.40555 6.33804C7.24277 6.33804 7.99926 6.57386 8.70072 6.83151C8.80668 6.87043 8.9142 6.91094 9.02146 6.95135C9.25628 7.03982 9.48987 7.12782 9.70316 7.19768C10.0162 7.3002 10.3487 7.38631 10.6716 7.38631C10.9728 7.38631 11.2957 7.28858 11.5912 7.18284C11.7589 7.12284 11.9547 7.04578 12.1554 6.96675C12.3018 6.90911 12.4509 6.85042 12.5936 6.79654C13.3148 6.52441 14.1327 6.27117 15.0432 6.27117C16.6414 6.27117 17.7368 6.82457 18.4314 7.36578C18.7378 7.6045 18.968 7.84242 19.1286 8.03239Z" stroke="#2E2E51"/>
</svg>
