<svg width="242" height="50" viewBox="0 0 242 50" fill="none" xmlns="http://www.w3.org/2000/svg">
<path d="M62 37.4151V9.67395H67.5612V20.8323L66.449 21.305C66.7403 20.3596 67.2567 19.5062 67.9982 18.7447C68.7662 17.9569 69.6798 17.3267 70.7391 16.854C71.7984 16.3813 72.9106 16.145 74.0759 16.145C75.6648 16.145 76.9889 16.4601 78.0482 17.0903C79.1339 17.7206 79.9416 18.679 80.4713 19.9657C81.0274 21.2262 81.3055 22.7886 81.3055 24.653V37.4151H75.6648V25.0863C75.6648 24.141 75.5324 23.3532 75.2676 22.723C75.0027 22.0928 74.5923 21.6332 74.0361 21.3444C73.5065 21.0293 72.8444 20.898 72.05 20.9505C71.4144 20.9505 70.8186 21.0555 70.2624 21.2656C69.7328 21.4494 69.2693 21.7251 68.8721 22.0928C68.5014 22.4604 68.1968 22.8805 67.9585 23.3532C67.7466 23.8259 67.6407 24.3379 67.6407 24.8894V37.4151H64.8601C64.251 37.4151 63.7081 37.4151 63.2314 37.4151C62.7547 37.4151 62.3443 37.4151 62 37.4151Z" fill=""/>
<path d="M93.3047 37.809C91.1596 37.809 89.2397 37.3495 87.5448 36.4304C85.8764 35.485 84.5523 34.1983 83.5725 32.5703C82.6191 30.9422 82.1425 29.0778 82.1425 26.977C82.1425 24.8763 82.6191 23.025 83.5725 21.4231C84.5523 19.7951 85.8764 18.5084 87.5448 17.563C89.2397 16.6177 91.1596 16.145 93.3047 16.145C95.4232 16.145 97.3167 16.6177 98.9851 17.563C100.68 18.5084 102.004 19.7951 102.957 21.4231C103.911 23.025 104.387 24.8763 104.387 26.977C104.387 29.0778 103.911 30.9422 102.957 32.5703C102.004 34.1983 100.68 35.485 98.9851 36.4304C97.3167 37.3495 95.4232 37.809 93.3047 37.809ZM93.3047 32.9248C94.3375 32.9248 95.2644 32.6753 96.0853 32.1764C96.9062 31.6512 97.5418 30.9422 97.992 30.0494C98.4687 29.1303 98.707 28.1062 98.707 26.977C98.707 25.8216 98.4687 24.7975 97.992 23.9047C97.5418 22.9856 96.9062 22.2766 96.0853 21.7776C95.2644 21.2525 94.3375 20.9899 93.3047 20.9899C92.2454 20.9899 91.3053 21.2525 90.4843 21.7776C89.6634 22.3028 89.0146 23.0118 88.5379 23.9047C88.0612 24.7975 87.8361 25.8216 87.8626 26.977C87.8361 28.1062 88.0612 29.1303 88.5379 30.0494C89.0146 30.9422 89.6634 31.6512 90.4843 32.1764C91.3053 32.6753 92.2454 32.9248 93.3047 32.9248Z" fill=""/>
<path d="M113.06 37.809C111.101 37.809 109.353 37.4939 107.817 36.8637C106.307 36.2072 105.089 35.3144 104.162 34.1852L107.658 31.1916C108.479 32.0582 109.393 32.6884 110.399 33.0823C111.405 33.4499 112.412 33.6338 113.418 33.6338C113.815 33.6338 114.173 33.5944 114.49 33.5156C114.835 33.4106 115.126 33.2793 115.364 33.1217C115.603 32.9379 115.775 32.7278 115.881 32.4915C116.013 32.2289 116.079 31.9532 116.079 31.6643C116.079 31.0866 115.841 30.6271 115.364 30.2857C115.1 30.1544 114.689 29.9968 114.133 29.813C113.577 29.6029 112.862 29.3797 111.988 29.1434C110.637 28.802 109.485 28.4081 108.532 27.9617C107.605 27.4891 106.864 26.9639 106.307 26.3862C105.831 25.8347 105.46 25.2439 105.195 24.6137C104.957 23.9572 104.838 23.235 104.838 22.4473C104.838 21.5019 105.05 20.6485 105.473 19.887C105.897 19.0992 106.48 18.4296 107.221 17.8781C107.989 17.3267 108.863 16.9065 109.843 16.6177C110.823 16.3026 111.855 16.145 112.941 16.145C114.027 16.145 115.086 16.2763 116.119 16.5389C117.152 16.8015 118.105 17.1823 118.979 17.6812C119.88 18.1539 120.661 18.7184 121.323 19.3749L118.304 22.6836C117.827 22.2372 117.284 21.8302 116.675 21.4625C116.093 21.0949 115.484 20.806 114.848 20.596C114.212 20.3859 113.643 20.2809 113.14 20.2809C112.69 20.2809 112.279 20.3203 111.908 20.399C111.564 20.4778 111.273 20.596 111.035 20.7535C110.796 20.9111 110.611 21.1212 110.478 21.3838C110.372 21.6201 110.32 21.8827 110.32 22.1715C110.32 22.4604 110.386 22.7361 110.518 22.9987C110.677 23.2613 110.889 23.4845 111.154 23.6683C111.445 23.8259 111.869 24.0097 112.425 24.2198C113.007 24.4298 113.789 24.6662 114.769 24.9288C116.04 25.2701 117.112 25.6509 117.986 26.0711C118.886 26.4912 119.601 26.977 120.131 27.5285C120.581 28.0011 120.912 28.5394 121.124 29.1434C121.336 29.7474 121.442 30.417 121.442 31.1522C121.442 32.439 121.071 33.5944 120.33 34.6185C119.615 35.6163 118.622 36.4041 117.351 36.9818C116.079 37.5333 114.649 37.809 113.06 37.809Z" fill=""/>
<path d="M125.73 37.4151V9.8934H131.371V37.4151H125.73ZM121.797 21.5807V16.5783H135.661V21.5807H121.797Z" fill=""/>
<path d="M146.645 37.809C144.368 37.809 142.382 37.3495 140.687 36.4304C138.992 35.5113 137.668 34.2509 136.715 32.649C135.761 31.0472 135.285 29.2091 135.285 27.1346C135.285 25.5327 135.549 24.0622 136.079 22.723C136.609 21.3838 137.35 20.2283 138.304 19.2567C139.257 18.2589 140.382 17.4974 141.68 16.9722C143.004 16.4207 144.434 16.145 145.97 16.145C147.4 16.145 148.724 16.4076 149.943 16.9328C151.161 17.4317 152.207 18.1539 153.081 19.0992C153.981 20.0183 154.67 21.108 155.146 22.3685C155.623 23.6289 155.835 25.0076 155.782 26.5043L155.742 28.2375H138.86L137.946 24.8106H151.094L150.459 25.5196V24.653C150.406 23.944 150.168 23.3007 149.744 22.723C149.347 22.1453 148.83 21.6989 148.195 21.3838C147.559 21.0686 146.844 20.9111 146.05 20.9111C144.884 20.9111 143.891 21.1343 143.07 21.5807C142.276 22.0271 141.667 22.6836 141.243 23.5502C140.819 24.4167 140.608 25.4671 140.608 26.7013C140.608 27.9617 140.872 29.0515 141.402 29.9706C141.958 30.8897 142.726 31.6118 143.706 32.137C144.712 32.6359 145.891 32.8854 147.241 32.8854C148.168 32.8854 149.016 32.7409 149.784 32.4521C150.552 32.1632 151.373 31.6643 152.246 30.9553L154.948 34.6973C154.18 35.38 153.332 35.9577 152.405 36.4304C151.478 36.8768 150.525 37.2182 149.545 37.4545C148.565 37.6908 147.599 37.809 146.645 37.809Z" fill=""/>
<path d="M156.812 37.4151V9.67395H162.453V37.4151H156.812Z" fill=""/>
<path d="M169.256 37.4151V9.67395H174.817V20.8323L173.705 21.305C173.996 20.3596 174.512 19.5062 175.254 18.7447C176.022 17.9569 176.935 17.3267 177.995 16.854C179.054 16.3813 180.166 16.145 181.331 16.145C182.92 16.145 184.244 16.4601 185.304 17.0903C186.389 17.7206 187.197 18.679 187.727 19.9657C188.283 21.2262 188.561 22.7886 188.561 24.653V37.4151H182.92V25.0863C182.92 24.141 182.788 23.3532 182.523 22.723C182.258 22.0928 181.848 21.6332 181.292 21.3444C180.762 21.0293 180.1 20.898 179.305 20.9505C178.67 20.9505 178.074 21.0555 177.518 21.2656C176.988 21.4494 176.525 21.7251 176.128 22.0928C175.757 22.4604 175.452 22.8805 175.214 23.3532C175.002 23.8259 174.896 24.3379 174.896 24.8894V37.4151H172.116C171.507 37.4151 170.964 37.4151 170.487 37.4151C170.01 37.4151 169.6 37.4151 169.256 37.4151Z" fill=""/>
<path d="M200.56 37.809C198.415 37.809 196.495 37.3495 194.8 36.4304C193.132 35.485 191.808 34.1983 190.828 32.5703C189.875 30.9422 189.398 29.0778 189.398 26.977C189.398 24.8763 189.875 23.025 190.828 21.4231C191.808 19.7951 193.132 18.5084 194.8 17.563C196.495 16.6177 198.415 16.145 200.56 16.145C202.679 16.145 204.572 16.6177 206.241 17.563C207.935 18.5084 209.26 19.7951 210.213 21.4231C211.166 23.025 211.643 24.8763 211.643 26.977C211.643 29.0778 211.166 30.9422 210.213 32.5703C209.26 34.1983 207.935 35.485 206.241 36.4304C204.572 37.3495 202.679 37.809 200.56 37.809ZM200.56 32.9248C201.593 32.9248 202.52 32.6753 203.341 32.1764C204.162 31.6512 204.797 30.9422 205.248 30.0494C205.724 29.1303 205.963 28.1062 205.963 26.977C205.963 25.8216 205.724 24.7975 205.248 23.9047C204.797 22.9856 204.162 22.2766 203.341 21.7776C202.52 21.2525 201.593 20.9899 200.56 20.9899C199.501 20.9899 198.561 21.2525 197.74 21.7776C196.919 22.3028 196.27 23.0118 195.793 23.9047C195.317 24.7975 195.092 25.8216 195.118 26.977C195.092 28.1062 195.317 29.1303 195.793 30.0494C196.27 30.9422 196.919 31.6512 197.74 32.1764C198.561 32.6753 199.501 32.9248 200.56 32.9248Z" fill=""/>
<path d="M212.208 44.674V16.5783H217.65L217.809 21.2656L216.776 20.9111C216.961 20.0708 217.411 19.2961 218.126 18.5871C218.868 17.8781 219.781 17.3004 220.867 16.854C221.953 16.4076 223.092 16.1844 224.283 16.1844C226.111 16.1844 227.726 16.6571 229.13 17.6024C230.56 18.5215 231.685 19.7951 232.506 21.4231C233.354 23.025 233.777 24.8763 233.777 26.977C233.777 29.0515 233.367 30.9028 232.546 32.5309C231.725 34.1589 230.599 35.4457 229.169 36.391C227.739 37.3101 226.111 37.7696 224.283 37.7696C223.065 37.7696 221.9 37.5464 220.788 37.1C219.702 36.6273 218.775 36.0102 218.007 35.2487C217.239 34.4872 216.762 33.6731 216.577 32.8066L217.888 32.2551V44.674H212.208ZM223.012 32.9641C224.045 32.9641 224.959 32.7147 225.753 32.2158C226.548 31.7168 227.17 31.0209 227.62 30.1281C228.07 29.2091 228.295 28.1587 228.295 26.977C228.295 25.7953 228.07 24.7581 227.62 23.8653C227.17 22.9724 226.548 22.2766 225.753 21.7776C224.985 21.2787 224.072 21.0293 223.012 21.0293C221.953 21.0293 221.026 21.2787 220.232 21.7776C219.437 22.2503 218.815 22.9462 218.365 23.8653C217.914 24.7581 217.689 25.7953 217.689 26.977C217.689 28.1587 217.914 29.2091 218.365 30.1281C218.815 31.0209 219.437 31.7168 220.232 32.2158C221.026 32.7147 221.953 32.9641 223.012 32.9641Z" fill=""/>
<path d="M237.616 37.8V33.8H238.568L240.095 36.3715H239.488L241.004 33.8H242V37.8H240.95L240.972 34.6352L241.545 34.5143L240.138 36.9649H239.424L237.94 34.4264L238.633 34.5583L238.655 37.8H237.616ZM235.007 37.8V34.0638H236.014V37.8H235.007ZM234 34.7451V33.8H237.064V34.7451H234Z" fill=""/>
<path d="M48.8636 5.64754C47.876 3.70157 46.2965 2.11907 44.3525 1.12779C42.1402 9.83382e-06 39.2414 0 33.4497 0H16.5532C10.7586 0 7.86271 9.83382e-06 5.64754 1.12779C3.70084 2.11842 2.11842 3.70084 1.12779 5.64754C9.83382e-06 7.85982 0 10.7586 0 16.5503V33.4468C0 39.2414 9.83382e-06 42.1373 1.12779 44.3525C2.11923 46.2986 3.70143 47.8808 5.64754 48.8722C7.86271 50 10.7586 50 16.5532 50H33.4497C39.2414 50 42.1402 50 44.3525 48.8722C46.2992 47.8816 47.8816 46.2992 48.8722 44.3525C50 42.1373 50 39.2414 50 33.4468V16.5532C49.9913 10.7586 49.9914 7.85982 48.8636 5.64754ZM38.9847 36.5936L38.8693 37.156H32.942L33.1122 36.3138C33.4177 34.5439 33.4362 32.7363 33.167 30.9605C32.642 28.0213 31.1884 26.6542 28.5953 26.6542C27.4156 26.6542 26.2706 27.0609 25.088 27.9031C23.8134 28.8631 22.6945 30.014 21.771 31.3153C20.5258 33.0022 19.4623 34.8159 18.5982 36.7263L18.4165 37.1531H12.593L12.7863 36.2878C12.7863 36.233 13.9948 30.8884 14.015 25.7052C14.0294 22.8497 13.6948 20.6259 13.0199 19.1001C12.0998 17.0089 10.8192 17.0089 10.3375 17.0089H9.42026L11.0038 11.1018H11.5431C13.8362 11.1018 16.9368 11.944 18.6934 15.959C19.6366 18.1165 20.1067 21.0355 20.0836 24.6322C20.0836 24.7967 20.0836 24.9639 20.0836 25.1341C20.733 24.5111 21.424 23.9329 22.1517 23.4035C24.6265 21.6239 27.2022 20.724 29.8125 20.724C32.7199 20.724 35.036 21.6441 36.7003 23.4583C37.9608 24.8341 38.7972 26.6917 39.1895 28.9818C39.775 32.5151 39.0655 36.1869 38.9847 36.5936Z" fill=""/>
 <!-- fill="url(#gradient)" -->
<defs>
<linearGradient id="gradient" x1="4.45919" y1="74.6092" x2="33.9314" y2="3.40352" gradientUnits="userSpaceOnUse">
<stop stop-color="#EBEBEB"/>
<stop offset="1" stop-color="white"/>
</linearGradient>
</defs>
</svg>
