<svg xmlns="http://www.w3.org/2000/svg" xml:space="preserve" style="fill-rule:evenodd;clip-rule:evenodd;stroke-linecap:round;stroke-linejoin:round" viewBox="0 0 161 138">
  <path d="M114.151 132.378C66.047 120.444 14.145 118.346 9.326 69.024 7.965 58.45 4.082 52.243 8.164 42.378c3.486-8.504-6.463-14.315-2.92-22.819C12.189 2.835 23.329 1.701 41.471 2.239c37.105 1.134 58.252 20.835 77.556 52.526 7.455 12.274 9.864 21.969 23.159 27.411 10.034 4.139 3.628 14.57-3.799 22.479-10.601 11.282-9.411 31.011-24.236 27.723C66.047 120.444 14.145 118.346 9.326 69.024" style="fill:none;stroke:#9393aa;stroke-width:.6px" transform="translate(.823 1.593)"/>
  <path d="M52.243 96.236c10.573 5.471 22.365 7.852 37.445 9.099 15.846 1.333 22.536-20.296 17.943-35.546-8.73-28.828-27.014-42.378-56.097-50.23-10.857-2.891-25.88-.113-25.427 11.084 0 8.674 1.219 14.513-4.252 21.203-6.69 8.192.17 17.489 7.172 25.426a82.803 82.803 0 0 0 7.313 7.484" style="fill:none;stroke:#9393aa;stroke-width:.6px" transform="translate(.823 1.593)"/>
  <path d="M55.332 89.121c8.448 5.953 18.369 9.95 31.096 8.362 11.197-1.36 19.559-11.905 16.64-22.818-6.86-25.427-23.244-43.371-49.578-43.371-9.496 0-22.536 4.423-19.559 13.38 1.134 3.09 1.134 7.03-2.126 8.674-5.641 3.033-6.945 10.346-1.474 14.145 3.373 2.806 6.633 5.726 9.779 8.589" style="fill:none;stroke:#9393aa;stroke-width:.6px" transform="translate(.823 1.593)"/>
  <path d="M56.806 83.112c9.808 6.123 23.84 9.042 37.106-5.84 6.605-7.398-3.062-15.25-9.128-23.159-9.779-12.67-21.94-17.83-37.474-14.003-5.953 1.474-13.975 7.881-9.467 12.388 12.387 9.666 1.105 17.433 10.403 24.406 2.749 2.183 5.669 4.394 8.674 6.321" style="fill:none;stroke:#9393aa;stroke-width:.6px" transform="translate(.823 1.593)"/>
  <path d="M44.362 50.542c14.995 11.82 22.989 26.901 41.726 23.159 7.994-1.588-4.762-12.161-11.395-16.951-9.61-6.889-15.562-11.112-27.383-11.112-2.438 0-5.414 3.288-2.948 4.904 14.995 11.82 22.989 26.901 41.726 23.159M122.91 44.419c7.881 8.362 9.043 16.242 19.446 21.118 5.953 2.835 16.271-5.102 12.642-10.63-8.022-12.104-15.618-19.531-30.104-20.296-4.025-.198-4.762 6.746-1.984 9.808 7.881 8.362 9.043 16.242 19.446 21.118" style="fill:none;stroke:#9393aa;stroke-width:.6px" transform="translate(.823 1.593)"/>
  <path d="M131.896 46.573c6.265 5.67 10.772 17.547 17.291 12.133 3.402-2.807-1.162-7.229-4.507-10.12-4.252-3.6-7.228-5.811-12.784-5.499-1.417.085-1.162 2.494 0 3.486 6.265 5.67 10.772 17.547 17.291 12.133M30.557 29.622c.879 1.247 3.232 1.162 5.245-.283 2.012-1.389 2.891-3.572 2.012-4.819-.85-1.248-3.231-1.134-5.216.255-2.012 1.417-2.891 3.6-2.041 4.847.879 1.247 3.232 1.162 5.245-.283M42.123 77.868c4.592 4.167 8.957 8.107 13.209 11.253M38.211 86.343c4.734 4.054 9.666 7.484 14.06 9.922M70.98 63.071c-.369.538-.029 1.446.822 2.069.822.595 3.288 1.729 3.685 1.191.368-.511-1.503-2.438-2.325-3.062-.85-.623-1.814-.68-2.182-.198-.369.538-.029 1.446.822 2.069" style="fill:none;stroke:#9393aa;stroke-width:.6px" transform="translate(.823 1.593)"/>
  <path d="M19.899 22.507c-2.579 6.435-3.288 10.063-3.26 16.951 0 9.751-5.102 8.306-4.28 18 .992 12.359 4.535 21.997 11.395 29.311M59.046 56.409c7.795 4.224 9.694 12.076 18.567 12.076 2.097 0-.369-3.515-1.956-4.904-8.136-6.973-12.104-14.031-22.819-14.031-3.742 0 2.693 5.272 6.208 6.859 7.795 4.224 9.694 12.076 18.567 12.076" style="fill:none;stroke:#9393aa;stroke-width:.99px" transform="translate(.823 1.593)"/>
  <path d="M95.272 113.244c4.508-1.162 8.448-3.855 11.934-8.561 6.662-9.354 21.005-4.563 28.772-13.067 7.143-7.824-16.611-7.484-19.871-17.603-9.836-30.416-24.009-46.177-52.838-59.982-15.959-7.625-34.951-7.029-43.37 8.476M31.465 93.118c3.004 1.984 6.179 3.515 10.006 5.017 2.211.908 7.965 3.26 10.12 4.139 12.812 5.329 23.697 9.921 32.825 11.254M25.909 88.894a37.152 37.152 0 0 0 3.26 2.608" style="fill:none;stroke:#9393aa;stroke-width:.99px" transform="translate(.823 1.593)"/>
  <path d="M115.115 88.894c-.028.397.113.794.368 1.134.284.341.681.652 1.163.936a.585.585 0 0 0 .17.113M117.666 91.446c.227.085.482.141.737.198.652.17 1.389.255 2.183.284.765.056 1.474 0 2.154-.114.255-.028.51-.085.766-.142M124.384 91.389l.17-.085c.511-.227.936-.51 1.219-.85.312-.312.482-.681.51-1.078 0-.368-.141-.737-.396-1.077a3.31 3.31 0 0 0-1.163-.935c-.085-.029-.141-.057-.198-.085M123.676 86.91c-.227-.085-.454-.141-.709-.227a9.83 9.83 0 0 0-2.126-.311 10.997 10.997 0 0 0-2.211.141c-.284.057-.539.114-.765.17" style="fill:none;stroke:#9393aa;stroke-width:.6px;stroke-linecap:butt;stroke-linejoin:bevel" transform="translate(.823 1.593)"/>
  <path d="M116.986 86.967c-.057.028-.114.057-.17.057-.51.226-.936.51-1.219.822-.312.311-.482.68-.482 1.048-.028.397.113.794.368 1.134M145.191 70.016c-.199.708-.369 1.332-.539 1.842M144.312 72.709c-.114.34-.255.652-.369.907-.425.85-.822 1.417-1.134 1.899-.141.17-.226.312-.34.482M142.072 76.791v.056c-.113.51-.113 1.106.057 2.013.142.623.765 1.077 1.673 1.332.085.057.198.085.34.114M145.077 80.447a9.317 9.317 0 0 0 1.984-.028c1.021-.085 2.126-.312 3.033-.709M150.917 79.313c.737-.453 1.332-1.048 1.615-1.757.199-.567 0-.936-.397-1.247-.311-.199-.765-.369-1.218-.539M150.066 75.487c-.482-.17-.964-.341-1.332-.596-.51-.311-.851-.737-.822-1.36 0-.482.028-1.021.057-1.559v-.426" style="fill:none;stroke:#9393aa;stroke-width:.6px;stroke-linecap:butt;stroke-linejoin:bevel" transform="translate(.823 1.593)"/>
  <path d="M147.969 70.554v-.113c-.029-.454-.142-.879-.341-1.162-.226-.284-.538-.482-1.02-.482-.199 0-.34.028-.482.085-.17.057-.283.142-.397.227-.113.113-.227.226-.312.397-.085.141-.17.311-.226.51-.199.708-.369 1.332-.539 1.842M83.197 102.472c.822.142 1.559.284 2.268.426.226.056.481.085.737.141M87.109 103.153c.113.028.226.028.34.028a14.74 14.74 0 0 0 1.956.057 15.13 15.13 0 0 0 2.296-.34c.397-.085.652-.341.85-.709.057-.113.114-.283.17-.425M92.948 100.857l.028-.029c.085-.51.199-1.048.341-1.502.141-.482.34-.907.68-1.191.482-.425 1.02-.481 1.587-.368.255.057.51.142.794.255M97.228 98.391c.539.283 1.078.51 1.588.566.482.057.964-.113 1.36-.68.312-.453.652-.935.936-1.389M101.594 96.123c0-.029.028-.057.056-.085a53.81 53.81 0 0 0 1.304-2.155c.34-.623.681-1.275 1.021-2.012M104.372 91.077c.311-.708.623-1.446.992-2.296M121.918 36.425l1.616 1.389M152.504 63.043l-1.616-1.389M148.847 59.046l-1.644-1.361M131.216 43.569l1.644 1.36M142.101 78.888l1.871-.992M152.362 77.301l-2.126.283M146.523 68.825l-.114 2.126M94.28 97.852l.822 1.984" style="fill:none;stroke:#9393aa;stroke-width:.6px;stroke-linecap:butt;stroke-linejoin:bevel" transform="translate(.823 1.593)"/>
  <path d="M86.202 111.969c-.057.056-.142.113-.227.17l-.255.17c-.085.056-.17.085-.255.141-.085.057-.171.085-.227.114v-.595c.198-.114.368-.199.567-.341.17-.113.312-.198.425-.311h.539v4.138h-.567M88.413 113.414c0 .227.028.454.056.652 0 .199.057.369.114.51a.77.77 0 0 0 .255.341.614.614 0 0 0 .397.141c.17 0 .311-.056.425-.17.085-.085.17-.227.227-.368.056-.17.113-.34.113-.539.028-.198.057-.397.057-.595 0-.227-.029-.454-.057-.68a2.299 2.299 0 0 0-.113-.511.718.718 0 0 0-.256-.368c-.113-.085-.226-.114-.396-.114a.581.581 0 0 0-.426.17.973.973 0 0 0-.255.397c-.056.17-.085.34-.113.539-.028.227-.028.397-.028.595m-.567.029v-.369c.028-.17.028-.312.056-.482.029-.17.085-.312.142-.482.057-.17.142-.312.255-.453a1.33 1.33 0 0 1 .369-.312c.17-.085.34-.114.567-.114.198 0 .396.029.538.114.142.057.255.142.369.255.113.113.198.255.255.397.057.142.113.312.142.453.028.17.056.312.056.482.029.142.029.284.029.425 0 .482-.057.879-.142 1.163a1.882 1.882 0 0 1-.425.708c-.085.085-.142.142-.227.17a.449.449 0 0 1-.227.085c-.085.029-.142.057-.227.057h-.141c-.142 0-.284 0-.397-.057a1.05 1.05 0 0 1-.312-.141 1.859 1.859 0 0 1-.255-.227l-.17-.255a3.974 3.974 0 0 1-.17-.539c-.057-.198-.085-.51-.085-.878M91.984 113.414c0 .227.029.454.057.652.028.199.057.369.113.51.085.142.142.255.255.341a.616.616 0 0 0 .397.141c.17 0 .312-.056.425-.17.114-.085.171-.227.256-.368.056-.17.085-.34.113-.539 0-.198.028-.397.028-.595a5.55 5.55 0 0 0-.056-.68 1.35 1.35 0 0 0-.114-.511.71.71 0 0 0-.255-.368c-.113-.085-.227-.114-.397-.114a.577.577 0 0 0-.425.17.973.973 0 0 0-.255.397c-.057.17-.085.34-.113.539 0 .227-.029.397-.029.595m-.567.029v-.369c.029-.17.029-.312.057-.482.057-.17.085-.312.142-.482.056-.17.141-.312.255-.453a1.34 1.34 0 0 1 .368-.312c.17-.085.341-.114.567-.114.199 0 .397.029.539.114a.865.865 0 0 1 .368.255c.114.113.199.255.256.397.056.142.113.312.141.453.029.17.057.312.085.482v.425c0 .482-.056.879-.141 1.163a1.364 1.364 0 0 1-.426.708c-.085.085-.141.142-.226.17-.085.057-.142.085-.227.085-.085.029-.142.057-.199.057h-.17c-.141 0-.283 0-.397-.057a1.055 1.055 0 0 1-.311-.141.875.875 0 0 1-.227-.227.665.665 0 0 1-.17-.255 1.97 1.97 0 0 1-.199-.539c-.056-.198-.085-.51-.085-.878" style="fill:none" transform="translate(.823 1.593)"/>
  <path d="M33.931 44.674c1.134 3.09 1.134 7.03-2.126 8.674-.284.17-.567.312-.822.482" style="fill:none;stroke:#9393aa;stroke-width:1.05px;stroke-linecap:butt;stroke-linejoin:bevel" transform="translate(.823 1.593)"/>
  <path d="m34.243 45.723-2.07.538M34.583 47.877l-2.126.114M34.384 50.088l-2.069-.51M33.506 51.931l-1.73-1.248M31.89 53.32l-1.021-1.871" style="fill:none;stroke:#9393aa;stroke-width:.6px;stroke-linecap:butt;stroke-linejoin:bevel" transform="translate(.823 1.593)"/>
  <g transform="translate(.823 1.593)">
    <path d="M65.934 82.63c5.244 2.835 9.609 2.891 14.91.142" style="fill:none;stroke:#9393aa;stroke-width:.6px;stroke-linecap:butt;stroke-linejoin:bevel"/>
    <circle cx="69.449" cy="84.189" r=".85" style="fill:none"/>
    <circle cx="77.272" cy="84.274" r=".85" style="fill:none"/>
  </g>
  <path d="m59.641 80.844-.68.879-.652.907-.454-.907.765-.624" style="fill:none" transform="translate(.823 1.593)"/>
  <path d="M58.082 82.176c-.142.199-.284.397-.397.596-.454.793-.737 1.672-1.02 2.608-.284.907-.539 1.87-.908 2.749-.368.907-.85 1.729-1.559 2.41-1.162 1.077-1.87 2.239-2.381 3.401-.482 1.191-.765 2.381-1.048 3.6-.284 1.219-.539 2.466-.993 3.657-.283.709-.623 1.36-1.02 2.012" style="fill:none;stroke:#9393aa;stroke-width:1.05px" transform="translate(.823 1.593)"/>
  <path d="m49.238 103.408-.766.709-.907.595.284-.822.425-.879M52.328 93.43l.113-1.021.113-1.077.907.511-.453.907" style="fill:none" transform="translate(.823 1.593)"/>
  <path d="M53.008 91.587a8.783 8.783 0 0 0 .198-1.956c.029-1.388-.198-2.862-.397-4.308-.198-1.474-.368-2.892-.311-4.224 0-.595.056-1.219.226-1.757" style="fill:none;stroke:#9393aa;stroke-width:1.05px" transform="translate(.823 1.593)"/>
  <path d="m52.214 79.342.51-.964.851-.822-.17.822-.17.964" style="fill:none" transform="translate(.823 1.593)"/>
  <g transform="translate(.823 1.593)">
    <circle cx="44.079" cy="74.835" r=".51" style="fill:none"/>
    <circle cx="42.69" cy="75.657" r=".51" style="fill:none"/>
    <circle cx="41.471" cy="76.762" r=".51" style="fill:none"/>
    <circle cx="40.564" cy="78.038" r=".51" style="fill:none"/>
    <circle cx="39.883" cy="79.427" r=".51" style="fill:none"/>
    <circle cx="39.317" cy="80.901" r=".51" style="fill:none"/>
    <circle cx="38.806" cy="82.403" r=".51" style="fill:none"/>
    <circle cx="38.239" cy="83.849" r=".51" style="fill:none"/>
    <circle cx="37.559" cy="85.294" r=".51" style="fill:none"/>
    <circle cx="36.709" cy="86.627" r=".51" style="fill:none"/>
    <circle cx="35.631" cy="87.817" r=".51" style="fill:none"/>
    <circle cx="34.469" cy="88.923" r=".51" style="fill:none"/>
    <circle cx="33.194" cy="90" r=".51" style="fill:none"/>
    <circle cx="31.975" cy="90.964" r=".51" style="fill:none"/>
    <circle cx="30.699" cy="91.928" r=".51" style="fill:none"/>
    <circle cx="29.48" cy="93.005" r=".51" style="fill:none"/>
    <circle cx="28.318" cy="94.139" r=".51" style="fill:none"/>
    <circle cx="33.732" cy="87.704" r=".51" style="fill:none"/>
    <circle cx="32.003" cy="87.647" r=".51" style="fill:none"/>
    <circle cx="30.331" cy="87.477" r=".51" style="fill:none"/>
    <circle cx="28.63" cy="87.364" r=".51" style="fill:none"/>
    <circle cx="26.957" cy="87.392" r=".51" style="fill:none"/>
    <circle cx="25.313" cy="87.647" r=".51" style="fill:none"/>
    <circle cx="23.811" cy="88.129" r=".51" style="fill:none"/>
    <circle cx="22.365" cy="88.724" r=".51" style="fill:none"/>
  </g>
  <circle cx="35.943" cy="62.702" r="1.049" style="fill:none" transform="translate(.823 1.593)"/>
  <path d="M131.357 89.093c.057.482.851.794 1.73.737.963-.057 1.7-.454 1.644-.936 0-.453-.794-.822-1.729-.737-.908.057-1.645.482-1.645.936" style="fill:none" transform="translate(.823 1.593)"/>
  <path d="M135.581 70.328v.198c.085.68.624 1.134 1.332 1.134.652 0 1.248-.397 1.333-1.077v-.255" style="fill:none;stroke:#9393aa;stroke-width:.71px;stroke-linecap:butt;stroke-linejoin:bevel" transform="translate(.823 1.593)"/>
  <path d="m129.175 63.893 1.559 3.543 1.559-3.543h-.765l-.794 1.757-.794-1.757" style="fill:none" transform="translate(.823 1.593)"/>
  <g transform="translate(.823 1.593)">
    <circle cx="117.553" cy="35.887" r=".425" style="fill:none"/>
    <circle cx="117.553" cy="38.183" r=".425" style="fill:none"/>
    <circle cx="115.739" cy="38.863" r=".425" style="fill:none"/>
    <circle cx="115.739" cy="37.361" r=".425" style="fill:none"/>
    <circle cx="114.094" cy="38.693" r=".425" style="fill:none"/>
    <circle cx="113.953" cy="36.397" r=".425" style="fill:none"/>
    <circle cx="116.079" cy="35.575" r=".425" style="fill:none"/>
    <circle cx="114.265" cy="34.413" r=".425" style="fill:none"/>
    <circle cx="112.309" cy="35.405" r=".425" style="fill:none"/>
    <circle cx="112.309" cy="37.531" r=".425" style="fill:none"/>
    <circle cx="110.835" cy="36.709" r=".425" style="fill:none"/>
    <circle cx="112.961" cy="39.827" r=".425" style="fill:none"/>
    <circle cx="114.917" cy="40.337" r=".425" style="fill:none"/>
    <circle cx="117.241" cy="40.337" r=".425" style="fill:none"/>
    <circle cx="119.197" cy="37.219" r=".425" style="fill:none"/>
    <circle cx="116.901" cy="34.413" r=".425" style="fill:none"/>
    <circle cx="115.597" cy="33.42" r=".425" style="fill:none"/>
    <circle cx="118.715" cy="33.42" r=".425" style="fill:none"/>
    <circle cx="118.715" cy="35.235" r=".425" style="fill:none"/>
    <circle cx="119.849" cy="34.101" r=".425" style="fill:none"/>
  </g>
</svg>
