<svg xmlns="http://www.w3.org/2000/svg" xml:space="preserve" style="fill-rule:evenodd;clip-rule:evenodd;stroke-linejoin:round;stroke-miterlimit:2" viewBox="0 0 80 80">
  <path d="M64.573 97.434c-1.054.02-2.107.047-3.161.061-.735.009-1.47.002-2.26.002v-2.705l-.021.019h2.62v-2.663h-2.62l.018.018v-2.752h2.618v-2.682h-2.616v-2.684h2.6v-2.716h-5.295V73.25h5.339v-2.641l-.022.023h2.718v-2.76h2.69v-5.317h5.383v5.308h2.669v2.692h-2.63v5.386h-2.681v2.669h5.323V73.3h2.703v5.36h2.751l-.025 2.658H69.882v2.745H67.24v2.676c.504 0 .962-.004 1.42 0 1.339.016 2.678.036 4.017.055l-.012-.011v2.599h7.991v-8.08l2.686.001v2.688h2.662v-2.672h-2.679l.012-2.625h2.669v-2.681h-2.652v2.696l-2.671-.034v-5.403h5.426l-.023-.018v2.738h2.662v8h5.382c0-1.033-.003-2.013 0-2.993.009-2.582.021-5.164.032-7.746l-.017.017 2.639-.02-.019-.017v2.741h2.773v2.655h2.649v-2.62h2.72v2.673h5.368v5.366h2.71v2.653h2.644v-5.378h-2.681v-5.368h-2.663v-2.701l-.016.018h5.398v2.675h5.317v5.38h-2.625v8.093h-2.66v8.063h5.3v2.703h-2.671v2.682l.017-.014h-2.688v-2.6h-2.729v5.388h-2.608v2.63h2.608l-.014 2.659.014-.015-5.304.001.012.01v-2.612h-5.419v2.617h-2.685v8.064H88.766v-8.039h5.395v-2.687l-.017.015h2.617v-5.431h-2.617l.016.016v-2.661l-.016.015h2.643v-5.433h5.447v-5.429h2.64v2.8h2.737v2.609h5.305V89.41h-2.657v-2.635h-2.694v2.601h-2.705v-5.335h2.676V81.38H96.838v2.676h2.61v5.311h-2.671v-2.58h-2.666v2.583h-2.714v-2.589h-2.668v5.384l.017-.017h-5.431v5.307l.014-.015h-5.391v-2.643h-2.686v-2.679h-5.403V89.47h-2.64v5.339h-2.664v2.649l.027-.023.001-.001Zm42.983.117h-8.017v7.996h8.017v-7.996ZM64.539 75.918h2.611v-5.287h-2.611v5.287Zm-5.392 2.696h2.617v-2.619h-2.617v2.619Zm26.874 8.158h-2.647v2.598h2.647v-2.598Zm-21.477-8.077v2.613h2.621v-2.613h-2.621Zm32.229 37.636v-2.636h-2.596v2.636h2.596Z" style="fill:#2e2e51;fill-rule:nonzero" transform="translate(-42 -40)"/>
  <path d="M86.112 67.835h-5.441v2.706H77.97v-5.35h-2.668V62.54h5.347v2.613h2.684v-5.376l-.016.017h2.701v-2.661h-2.699l.015.015v-2.784l-.014.014h2.786v-2.661l-.018.017h2.672v2.64h5.405v-5.301l-.012.016 2.703.055-.011-.014v2.571h2.615v10.74c-.909.062-1.812.122-2.716.182.023-.98.052-1.961.064-2.94.011-.835.002-1.671.002-2.523h-2.692v2.655h-2.765V57.16h-2.582v2.638h2.598v2.67c.318.014.531.032.746.033 1.339.004 2.678-.002 4.017.009.206.001.411.07.618.108v2.537h5.435v-2.604h2.68v2.682h5.443l-.017-.019-.018 8.057.016-.018h-8.025v-2.59c.192-.027.385-.075.577-.077 1.38-.007 2.762-.002 4.142-.004.19 0 .379-.018.569-.027v-2.651h-5.278v2.77l-2.775-.148v-2.621h-5.348v5.365l.017-.017h-2.757v-8.074h-2.684v-2.633h-2.638v5.309l.027-.022-.004.002ZM61.767 59.771H43.004V41.015h18.763v18.756Zm-2.684-16.075H45.69v13.391h13.393V43.696Z" style="fill:#2e2e51;fill-rule:nonzero" transform="translate(-42 -40)"/>
  <path d="M102.234 59.77V41.005h18.756V59.77h-18.756Zm2.686-2.695h13.395v-13.39H104.92v13.39ZM43 118.993v-18.749h18.752v18.749H43Zm16.094-16.066h-13.41v13.38h13.41v-13.38ZM91.389 102.854h-2.633v-2.607h-2.685v5.295h-8.157v-2.687l-.014.016h2.781v-2.687h2.65V97.44l-.015.015h2.752v-2.664h2.679v-2.642l-.017.017h2.689v2.624h2.75l-.022 5.436.015-.016h-2.786v2.661l.012-.016.001-.001ZM72.612 49.089h2.629v-2.718h2.685V41.01h8.078v2.629h-5.331v2.676h-2.689v5.386h-2.668v2.677h5.371l-.015-.015v2.786l.017-.015h-2.707v2.625h-2.684V57.17h-2.699v2.605h-2.743v-5.414l-.013.018h2.743v-.745c.013-1.52.026-3.039.041-4.56l-.012.016-.003-.001ZM75.234 108.313h2.702v2.63h5.383v2.701h2.698v2.694H83.36v2.651H72.633v-2.613h7.987v-2.697h-7.998v-2.698h2.629v-2.687l-.018.02.001-.001ZM56.298 65.141l.064 2.713.015-.013h-2.676v5.445h-2.628v5.4l.018-.015h-2.772v-8.057l-.019.014h2.691v-2.789H48.3l.018.014v-5.309h5.373v2.605h2.615l-.007-.008h-.001Z" style="fill:#2e2e51;fill-rule:nonzero" transform="translate(-42 -40)"/>
  <path d="M80.687 54.378v-5.297h5.327v-5.394h2.704V41h10.748v2.631h-8.088v2.682l.015-.01h-2.67v2.745h-2.636v2.686l.018-.017h-2.786v2.661l.014-.014h-2.66l.016.014h-.002ZM112.915 113.69v5.309h-2.634v-2.609H107.6V119h-2.689v-2.621h-2.665v-2.702h2.621v-2.749h2.77l-.012-.009v2.782h5.305l-.015-.011ZM56.373 92.147h-8.056v-5.414l-.017.016h2.748v2.636h2.685v-5.298l-.017.018h2.7c0 2.319.002 4.595-.002 6.87 0 .397-.035.794-.055 1.191l.014-.019ZM75.253 108.293H72.6v-2.666h-2.761l.014.013v-2.785l-.015.016h2.754v-5.338h2.698v2.701h2.61v2.636l.014-.016h-2.679v5.458l.018-.019Z" style="fill:#2e2e51;fill-rule:nonzero" transform="translate(-42 -40)"/>
  <path d="M69.839 105.627c.011 2.68.022 5.36.031 8.039.004.875 0 1.748 0 2.651h-2.685l.016.017v-2.641h-2.652v-5.406h2.66v-2.658l-.017.012 2.661-.002-.014-.013v.001Z" style="fill:#2e2e51;fill-rule:nonzero" transform="translate(-42 -40)"/>
  <path d="M67.21 105.631h-2.644c-.032-.195-.066-.307-.066-.42-.003-2.436-.003-4.872.002-7.308 0-.156.046-.313.071-.469l-.027.023 2.668-.028v2.797h2.625v2.644l.016-.016h-2.662v2.787l.017-.012v.002ZM48.314 84.104v-2.75h2.776v-2.683l-.018.015h2.644v5.418l.017-.018-5.431.001.012.016v.001ZM56.306 65.149c.037-.588.079-1.175.109-1.763.013-.258.002-.515.002-.826h8.04v2.59c-.125.016-.238.042-.35.042-2.464.003-4.926.003-7.39 0-.139 0-.277-.031-.415-.05-.002 0 .006.007.006.007h-.002Z" style="fill:#2e2e51;fill-rule:nonzero" transform="translate(-42 -40)"/>
  <path d="M48.317 86.734h-5.315v-5.351h2.636v2.721h2.676l-.012-.016-.004 2.661.017-.015h.002ZM45.677 94.855h8.004v2.592h-8.004zM69.81 43.7h-2.601v2.609h-2.675v-5.287h5.259v2.691l.016-.013h.001ZM69.853 54.36h-2.638v-2.604h-2.664V49.09h5.301l-.013-.017v5.305l.013-.018h.001ZM118.3 67.805v-2.592h-2.601v-2.667h5.284v5.246h-2.694l.011.013Z" style="fill:#2e2e51;fill-rule:nonzero" transform="translate(-42 -40)"/>
  <path d="M69.852 49.09c-.013-1.797-.026-3.596-.041-5.392l-.017.015h2.818v5.374l.012-.015H69.84l.013.017-.001.001ZM94.165 108.271h-2.776v-5.417l-.012.016h2.785l-.015-.016v5.431l.016-.015.002.001ZM56.361 67.855h5.412v2.777l.022-.023h-5.419v-2.768l-.015.014ZM118.289 67.793v2.876l.014-.012c-.737-.024-1.473-.061-2.209-.071-1.018-.012-2.036-.003-3.095-.003v-2.714c.225 0 .456.002.686 0 1.539-.019 3.078-.04 4.616-.061a.098.098 0 0 0-.012-.015ZM86.109 73.274l.002-5.439-.026.022h2.61v5.399h-2.609l.023.018ZM118.33 102.868h2.663v5.402h-2.663l.018.018v-5.433l-.017.015-.001-.002ZM64.543 57.164h2.606v5.3h-2.606zM45.714 67.791H43v-5.233h2.705v5.244l.009-.011ZM118.33 113.691v5.302h-2.627v-5.303l-.017.012h2.66l-.017-.012.001.001Z" style="fill:#2e2e51;fill-rule:nonzero" transform="translate(-42 -40)"/>
  <path d="M115.703 113.69h-2.788l.015.011v-2.785l-.015.015h2.784l-.014-.015v2.786l.017-.012h.001ZM91.377 46.313h2.772v2.774l.012-.015h-2.77v-2.771l-.014.011v.001ZM43.023 89.446h2.582v2.655h-2.582zM96.854 49.144v-2.75h2.592v2.602c-.871.043-1.739.087-2.606.132l.012.016h.002ZM118.331 110.931h2.662v2.759h-2.663l.017.012v-2.787l-.016.014v.002ZM43.002 76.01h2.617v2.625h-2.617zM59.152 94.791h-2.781v-2.645l-.013.019h2.791l-.018-.018v2.663l.021-.019ZM48.318 70.614l-2.613.049.009.011-.002-2.883-.009.009 2.614.052-.019-.014v2.789l.02-.014v.001ZM67.186 116.319v2.674h-2.637v-2.658h2.653l-.016-.016ZM83.332 59.778h-2.645v-2.644l-.016.015h2.661l-.016-.015v2.661l.016-.017ZM86.079 105.64h2.613v2.586h-2.613z" style="fill:#2e2e51;fill-rule:nonzero" transform="translate(-42 -40)"/>
  <path d="m118.329 108.27.001 2.662.016-.015h-2.66l.014.015-.011-2.661 2.658.017-.018-.018ZM45.705 70.663v2.557h-2.686v-2.546h2.695l-.009-.011ZM110.306 65.234V62.56h2.598v2.655h-2.615l.018.019h-.001ZM118.291 70.669l2.709-.12v2.681h-2.695v-2.575l-.014.013v.001ZM94.147 92.185h2.662v2.625h-2.662zM96.785 73.252v-2.616h2.683v2.601h-2.701l.019.016-.001-.001ZM67.193 97.455v-2.662h2.627v2.662h-2.628.001ZM72.677 86.794l-.135-2.707h5.363v2.693h-5.24l.013.012-.001.002ZM102.242 100.227h2.591v2.617h-2.591z" style="fill:#2e2e51;fill-rule:nonzero" transform="translate(-42 -40)"/>
  <path d="M112.914 108.288c0-.888.002-1.774.004-2.662h2.786v2.661h-2.79v.001ZM48.37 46.381h8.016v7.992H48.37zM107.63 46.37h7.991v8.003h-7.991zM48.358 105.645h8.013v7.988h-8.013z" style="fill:#2e2e51;fill-rule:nonzero" transform="translate(-42 -40)"/>
</svg>
