<svg width="168" height="168" viewBox="0 0 168 168" fill="none" xmlns="http://www.w3.org/2000/svg">
<g filter="url(#filter0_d_5938_23926)">
<rect x="13" y="11" width="138" height="138" rx="30" fill="white"/>
<g clip-path="url(#clip0_5938_23926)">
<path d="M64.573 97.4335C63.519 97.454 62.4663 97.4805 61.4124 97.4949C60.6773 97.5045 59.9422 97.4973 59.1518 97.4973V94.7919L59.1313 94.8111H61.7505V92.1478H59.1313L59.1493 92.1659V89.4135H61.7673V86.7322H59.1505V84.0484H61.7505V81.3321H56.4556V73.2496H61.795V70.6091L61.7733 70.632H64.4912V67.8724H67.1813V62.5554H72.564V67.8628H75.2325V70.555H72.6025V75.9406H69.922V78.6099H75.2445V73.3001H77.9479V78.6604C78.9116 78.6604 79.8055 78.6604 80.6994 78.6604C80.691 79.547 80.6826 80.4324 80.6742 81.3177H69.8823V84.0628H67.2403V86.7394C67.7444 86.7394 68.2015 86.7346 68.6599 86.7394C69.999 86.755 71.338 86.7755 72.6771 86.7935L72.6651 86.7827V89.3822H80.6561C80.6561 86.6636 80.6561 83.9822 80.6561 81.3021C81.5512 81.3021 82.4464 81.3033 83.3415 81.3033V83.9907H86.004V81.3189C85.08 81.3189 84.2029 81.3189 83.3246 81.3189C83.3282 80.4444 83.333 79.5698 83.3367 78.6941H86.0064V76.0127H83.3535C83.3535 76.9498 83.3535 77.8292 83.3535 78.7085C82.4632 78.6965 81.5729 78.6857 80.6826 78.6749V73.2724H86.1086L86.0858 73.2544V75.9923H88.7482V83.9919H94.1298C94.1298 82.9585 94.1273 81.9793 94.1298 80.9989C94.1394 78.4174 94.1514 75.8347 94.1622 73.2532L94.1454 73.27C95.0249 73.2628 95.9043 73.2568 96.7838 73.2496L96.7646 73.2327V75.9742H99.5377V78.6291H102.187V76.0091H104.907V78.6821H110.275V84.0484H112.985V86.7009H115.629V81.3225H112.948V75.955H110.285V73.2544L110.269 73.2724H115.667V75.9466H120.984V81.3273H118.359V89.4195H115.699V97.4829H120.999V100.186H118.328V102.868L118.345 102.854H115.657V100.254H112.928C112.928 102.085 112.928 103.864 112.928 105.642H110.32V108.272H112.928C112.924 109.159 112.919 110.044 112.914 110.931L112.928 110.916C111.16 110.916 109.392 110.916 107.624 110.917L107.636 110.927V108.315H102.217V110.932H99.5317V118.996H88.7663V110.957H94.161V108.27L94.1442 108.285H96.761V102.854H94.1442L94.1598 102.87C94.1598 101.983 94.1598 101.095 94.1598 100.209L94.1442 100.224H96.7874V94.7907H102.234V89.3618C103.161 89.3618 104.018 89.3618 104.874 89.3618C104.874 90.2748 104.874 91.1867 104.874 92.1622H107.611V94.7714H112.916V89.4099H110.259V86.7755H107.565V89.3762H104.86V84.0412H107.536V81.3803H96.838V84.0556H99.4475V89.3666H96.7766V86.7875H94.1105V89.3702H91.3975V86.7815H88.729V92.1646L88.7458 92.1478H83.315V97.4552L83.3294 97.4396H77.9383V94.7967H75.2518V92.1177H69.8486V89.4701H67.209C67.209 91.2853 67.209 93.0464 67.209 94.8087C66.3175 94.8087 65.4272 94.8087 64.5453 94.8087V97.4576L64.5718 97.4347L64.573 97.4335ZM107.556 97.5514H99.5389V105.547H107.556V97.5514ZM64.5393 75.9177H67.15V70.6308H64.5393V75.9177ZM59.1469 78.6135H61.7637V75.9947H59.1469V78.6135ZM86.0208 86.7719H83.374V89.3702H86.0208V86.7719ZM64.5441 78.6953V81.3081H67.1645V78.6953H64.5441ZM96.773 116.331V113.695H94.1767V116.331H96.773Z" fill="#2E2E51"/>
<path d="M86.1122 67.8353H80.6706V70.5407H77.9696V65.1912H75.3023V62.5399H80.6489V65.1527H83.333V59.7768L83.3174 59.7936H86.0184V57.1327H83.3186L83.3343 57.1484C83.3343 56.2197 83.3343 55.291 83.3343 54.3635L83.3198 54.378H86.1062V51.7171L86.0882 51.7339H88.7603V54.3744H94.1646V49.073L94.1526 49.0886C95.0537 49.1067 95.9549 49.1259 96.856 49.144L96.8452 49.1295V51.7014H99.4595V62.4413C98.5512 62.5027 97.6476 62.5628 96.7441 62.6229C96.767 61.6425 96.7958 60.6621 96.8079 59.683C96.8187 58.8481 96.8103 58.0121 96.8103 57.1604H94.1177V59.8153C93.1504 59.8153 92.2517 59.8153 91.353 59.8153C91.353 58.9299 91.353 58.0457 91.353 57.1604H88.7711V59.7984H91.3686V62.4678C91.6874 62.4822 91.9004 62.5002 92.1145 62.5014C93.4536 62.5051 94.7927 62.499 96.1317 62.5099C96.3375 62.5111 96.5432 62.5796 96.7501 62.6181V65.1551H102.185V62.5508H104.865V65.2333H110.308L110.291 65.2141C110.285 67.9003 110.279 70.5852 110.273 73.2714L110.289 73.2533H102.264C102.264 72.3319 102.264 71.4983 102.264 70.6634C102.456 70.6357 102.649 70.5876 102.841 70.5864C104.221 70.5792 105.603 70.584 106.983 70.5816C107.173 70.5816 107.362 70.5636 107.552 70.5551V67.9039H102.274V70.6742C101.369 70.6261 100.464 70.5768 99.4992 70.5263V67.9051H94.1514V73.2702L94.1683 73.2533H91.4107V65.1792H88.7266V62.546H86.0894V67.8545L86.1158 67.8329L86.1122 67.8353Z" fill="#2E2E51"/>
<path d="M61.7673 59.7705H43.0036V41.0154H61.7673V59.7705ZM59.0831 43.6955H45.6901V57.0867H59.0831V43.6955Z" fill="#2E2E51"/>
<path d="M102.234 59.7696V41.0049H120.99V59.7696H102.234ZM104.92 57.075H118.315V43.685H104.92V57.075Z" fill="#2E2E51"/>
<path d="M43 118.993V100.244H61.7517V118.993H43ZM59.0928 102.927H45.6841V116.307H59.094V102.927H59.0928Z" fill="#2E2E51"/>
<path d="M91.3891 102.854H88.7555V100.247H86.0713V105.542H77.9142C77.9142 104.639 77.9142 103.747 77.9142 102.855L77.8998 102.871C78.8069 102.871 79.7141 102.871 80.6814 102.871V100.184H83.3306V97.4397L83.3162 97.4553H86.0677V94.7908H88.747V92.1492L88.7302 92.166H91.4191V94.7896C92.3816 94.7896 93.2755 94.7896 94.1694 94.7896C94.1622 96.6013 94.155 98.4141 94.1466 100.226L94.1622 100.21H91.3758V102.871L91.3879 102.855L91.3891 102.854Z" fill="#2E2E51"/>
<path d="M72.6121 49.0885H75.2409V46.371H77.9263V41.0095H86.0039V43.6392H80.673V46.3145H77.984V51.7013H75.3155V54.3778H80.6874L80.6718 54.3634C80.6718 55.2921 80.6718 56.2207 80.6718 57.1494L80.6886 57.1338H77.9816V59.7586H75.2975V57.1699H72.5989V59.7754H69.8558V54.361L69.8426 54.379C70.7353 54.379 71.628 54.379 72.5857 54.379C72.5857 54.1048 72.5845 53.869 72.5857 53.6344C72.5989 52.1139 72.6121 50.5946 72.6266 49.074L72.6145 49.0897L72.6121 49.0885Z" fill="#2E2E51"/>
<path d="M75.2337 108.313H77.9359V110.943H83.3186V113.644H86.0172V116.338H83.3595V118.989H72.6326V116.376H80.62V113.679H72.6218V110.981H75.2506V108.294L75.2325 108.314L75.2337 108.313Z" fill="#2E2E51"/>
<path d="M56.298 65.1406C56.3196 66.0452 56.3401 66.9498 56.3617 67.8544L56.3774 67.8412H53.7005V73.2857H51.0729V78.6857L51.0909 78.6713H48.3189V70.614L48.2997 70.6284H50.9911V67.8388H48.2997L48.3177 67.8532V62.5435H53.6908V65.149H56.3064L56.2992 65.1406H56.298Z" fill="#2E2E51"/>
<path d="M80.6874 54.3779V49.0814H86.0136V43.6874H88.7182V41H99.4655V43.6308H91.3782V46.3134L91.3927 46.3026H88.723V49.0477H86.087V51.7339L86.105 51.717H83.3186V54.3779L83.333 54.3635H80.673L80.6886 54.3779H80.6874Z" fill="#2E2E51"/>
<path d="M112.915 113.69V118.999H110.281V116.39H107.6V119H104.911V116.379H102.246V113.677H104.867V110.928C105.819 110.928 106.729 110.928 107.637 110.928L107.625 110.919V113.701H112.93L112.915 113.69Z" fill="#2E2E51"/>
<path d="M56.3714 92.1466H48.3165V86.7334L48.2997 86.749H51.0476V89.3847H53.7329V84.0869L53.7161 84.105H56.4159C56.4159 86.4242 56.4183 88.7002 56.4135 90.975C56.4135 91.3719 56.3786 91.7689 56.3593 92.1659L56.3726 92.1466H56.3714Z" fill="#2E2E51"/>
<path d="M75.2518 108.293H72.6001V105.627H69.839L69.8534 105.64C69.8534 104.711 69.8534 103.784 69.8534 102.855L69.8378 102.871H72.5917V97.5334H75.2903V100.234H77.8998V102.87L77.9142 102.854H75.2349C75.2349 104.725 75.2349 106.518 75.2349 108.312L75.253 108.293H75.2518Z" fill="#2E2E51"/>
<path d="M69.839 105.627C69.8498 108.307 69.8606 110.987 69.8702 113.666C69.8739 114.541 69.8702 115.414 69.8702 116.317H67.1849L67.2005 116.334V113.693H64.5489V108.287H67.209V105.629L67.1921 105.641C68.0788 105.641 68.9655 105.64 69.8534 105.639L69.839 105.626V105.627Z" fill="#2E2E51"/>
<path d="M67.2102 105.631H64.5657C64.5345 105.436 64.4996 105.324 64.4996 105.211C64.4972 102.775 64.4972 100.339 64.502 97.9029C64.502 97.7465 64.5477 97.5902 64.573 97.4338L64.5465 97.4566C65.4356 97.447 66.3247 97.4386 67.2138 97.429V100.226H69.839V102.87L69.8546 102.854H67.1933V105.641L67.2102 105.629V105.631Z" fill="#2E2E51"/>
<path d="M48.3141 84.1039V81.3539H51.0897C51.0897 80.4193 51.0897 79.5459 51.0897 78.6714L51.0717 78.6858H53.7161V84.1039L53.7329 84.0858C51.9223 84.0858 50.1128 84.0858 48.3021 84.087L48.3141 84.1027V84.1039Z" fill="#2E2E51"/>
<path d="M56.3064 65.149C56.3425 64.5608 56.3846 63.9738 56.4147 63.3855C56.4279 63.1281 56.4171 62.8707 56.4171 62.5603H64.4575V65.1502C64.3323 65.1659 64.2192 65.1923 64.1073 65.1923C61.6434 65.1947 59.1806 65.1947 56.7166 65.1923C56.5783 65.1923 56.4399 65.1611 56.3016 65.1418C56.3004 65.1418 56.3076 65.149 56.3076 65.149H56.3064Z" fill="#2E2E51"/>
<path d="M48.3165 86.7335H43.0024V81.3828H45.6384V84.1039C46.5672 84.1039 47.4407 84.1039 48.3141 84.1039L48.3021 84.0882C48.3009 84.9748 48.2997 85.8614 48.2985 86.7491L48.3153 86.7335H48.3165Z" fill="#2E2E51"/>
<path d="M45.6769 97.4468V94.8545H53.6812V97.4468H45.6769Z" fill="#2E2E51"/>
<path d="M69.8101 43.6995H67.209V46.3087H64.5345V41.0217H69.7932C69.7932 41.9047 69.7932 42.8093 69.7932 43.7127L69.8089 43.6995H69.8101Z" fill="#2E2E51"/>
<path d="M69.8534 54.3599H67.215V51.7556H64.5513V49.0898H69.8522L69.839 49.073C69.839 50.8413 69.839 52.6096 69.839 54.378L69.8522 54.3599H69.8534Z" fill="#2E2E51"/>
<path d="M118.3 67.8052V65.2128H115.699V62.5459H120.983V67.7919H118.289L118.3 67.8052Z" fill="#2E2E51"/>
<path d="M69.8522 49.0898C69.839 47.2926 69.8257 45.4942 69.8113 43.6982C69.8101 43.6982 69.7957 43.7115 69.7944 43.7127C70.7016 43.7127 71.6099 43.7127 72.6121 43.7127C72.6121 45.5099 72.6121 47.2986 72.6121 49.0874L72.6242 49.0718C71.6966 49.0718 70.7678 49.0718 69.8402 49.0718L69.8534 49.0886L69.8522 49.0898Z" fill="#2E2E51"/>
<path d="M94.1646 108.271H91.3891C91.3891 106.427 91.3891 104.64 91.3891 102.854L91.377 102.87C92.3058 102.87 93.2346 102.87 94.1622 102.87L94.1466 102.854C94.1466 104.664 94.1466 106.475 94.1466 108.285L94.1634 108.27L94.1646 108.271Z" fill="#2E2E51"/>
<path d="M56.3617 67.8545H61.7733C61.7733 68.8145 61.7733 69.7227 61.7733 70.6321L61.795 70.6093H56.3762V67.8413L56.3605 67.8545H56.3617Z" fill="#2E2E51"/>
<path d="M118.289 67.7932C118.289 68.752 118.289 69.7107 118.289 70.6694L118.303 70.6574C117.566 70.6334 116.83 70.5961 116.094 70.5864C115.076 70.5744 114.058 70.5828 112.999 70.5828V67.869C113.224 67.869 113.455 67.8714 113.685 67.869C115.224 67.8498 116.763 67.8293 118.301 67.8076C118.301 67.8064 118.289 67.7932 118.289 67.7932Z" fill="#2E2E51"/>
<path d="M86.1086 73.2737C86.1086 71.4609 86.111 69.648 86.111 67.8352L86.0846 67.8569H88.6953V73.2557H86.0858L86.1086 73.2737Z" fill="#2E2E51"/>
<path d="M118.33 102.868H120.993V108.27H118.33L118.348 108.288C118.348 106.477 118.348 104.666 118.348 102.855L118.331 102.87L118.33 102.868Z" fill="#2E2E51"/>
<path d="M67.1488 62.4642H64.5429V57.1641H67.1488V62.4642Z" fill="#2E2E51"/>
<path d="M45.713 67.7907H43V62.5579H45.7046C45.7046 64.3274 45.7046 66.0632 45.7046 67.8015C45.7046 67.8027 45.7142 67.7907 45.7142 67.7907H45.713Z" fill="#2E2E51"/>
<path d="M118.33 113.691V118.993H115.703V113.69L115.686 113.702C116.573 113.702 117.459 113.702 118.346 113.702L118.329 113.69L118.33 113.691Z" fill="#2E2E51"/>
<path d="M115.703 113.69C114.774 113.69 113.845 113.69 112.915 113.69L112.93 113.701C112.93 112.772 112.93 111.845 112.93 110.916L112.915 110.931C113.843 110.931 114.771 110.931 115.699 110.931L115.685 110.916C115.685 111.845 115.685 112.774 115.685 113.702L115.702 113.69H115.703Z" fill="#2E2E51"/>
<path d="M91.377 46.3133H94.149C94.149 47.3045 94.149 48.1959 94.149 49.0873L94.161 49.0716H91.3915V46.3013L91.377 46.3121V46.3133Z" fill="#2E2E51"/>
<path d="M43.0229 89.446H45.6047V92.1009H43.0229V89.446Z" fill="#2E2E51"/>
<path d="M96.8536 49.144V46.394H99.4463V48.996C98.5752 49.0393 97.7066 49.0826 96.8404 49.1283C96.8416 49.1307 96.8524 49.144 96.8524 49.144H96.8536Z" fill="#2E2E51"/>
<path d="M118.331 110.931H120.993V113.69C120.102 113.69 119.216 113.69 118.33 113.69L118.347 113.702C118.347 112.774 118.347 111.844 118.347 110.915L118.331 110.929V110.931Z" fill="#2E2E51"/>
<path d="M45.6192 78.6353H43.0024V76.0105H45.6192V78.6353Z" fill="#2E2E51"/>
<path d="M59.1517 94.7908H56.3714C56.3714 93.8814 56.3714 93.014 56.3714 92.1455L56.3581 92.1648C57.2881 92.1648 58.2193 92.1648 59.1493 92.1648L59.1313 92.1467V94.81L59.1517 94.7908Z" fill="#2E2E51"/>
<path d="M48.3177 70.6141L45.7046 70.6634L45.7142 70.6742C45.7142 69.7131 45.7118 68.7531 45.7118 67.7908C45.7118 67.7908 45.7022 67.8016 45.7034 67.8004C46.5744 67.8172 47.4455 67.8341 48.3165 67.8521L48.2985 67.8377C48.2985 68.7676 48.2985 69.6974 48.2985 70.6273L48.3177 70.6129V70.6141Z" fill="#2E2E51"/>
<path d="M67.1861 116.319V118.993H64.5489V116.335C65.4536 116.335 66.3283 116.335 67.2017 116.335L67.1861 116.319Z" fill="#2E2E51"/>
<path d="M83.3318 59.7779H80.6874C80.6874 58.872 80.6874 58.0023 80.6874 57.1338L80.6706 57.1494C81.5573 57.1494 82.4439 57.1494 83.3318 57.1494L83.3162 57.1338C83.3162 58.0204 83.3162 58.9081 83.3162 59.7947L83.3318 59.7779Z" fill="#2E2E51"/>
<path d="M86.0785 108.226V105.64H88.6917V108.226H86.0785Z" fill="#2E2E51"/>
<path d="M118.329 108.27C118.329 109.158 118.329 110.044 118.33 110.932L118.346 110.917C117.459 110.917 116.573 110.917 115.686 110.917L115.7 110.932C115.697 110.045 115.693 109.158 115.689 108.271C116.575 108.277 117.462 108.283 118.347 108.288L118.329 108.27Z" fill="#2E2E51"/>
<path d="M45.7046 70.6645V73.2196H43.0193V70.6742C43.9059 70.6742 44.8095 70.6742 45.7142 70.6742L45.7046 70.6633V70.6645Z" fill="#2E2E51"/>
<path d="M110.306 65.2344V62.5603H112.904V65.2152C112.03 65.2152 111.159 65.2152 110.289 65.2152L110.307 65.2344H110.306Z" fill="#2E2E51"/>
<path d="M118.291 70.6694C119.18 70.6297 120.069 70.5912 121 70.5491V73.2304H118.305C118.305 72.3583 118.305 71.5066 118.305 70.6549L118.291 70.6682V70.6694Z" fill="#2E2E51"/>
<path d="M96.8091 94.8101C95.9212 94.8101 95.0345 94.8101 94.1466 94.8101V92.1853H96.8091V94.8089V94.8101Z" fill="#2E2E51"/>
<path d="M96.785 73.2521V70.6357H99.468V73.2365C98.5512 73.2365 97.6597 73.2365 96.767 73.2365L96.7862 73.2533L96.785 73.2521Z" fill="#2E2E51"/>
<path d="M67.1933 97.4553C67.1933 96.5676 67.1933 95.681 67.1933 94.7932H69.8197V97.4553H67.1921H67.1933Z" fill="#2E2E51"/>
<path d="M72.6771 86.7935C72.6326 85.9046 72.5881 85.0168 72.5424 84.0869H77.9046V86.7803C76.1673 86.7803 74.4156 86.7803 72.6651 86.7803L72.6783 86.7923L72.6771 86.7935Z" fill="#2E2E51"/>
<path d="M102.242 100.227H104.833V102.844H102.242V100.227Z" fill="#2E2E51"/>
<path d="M112.914 108.288C112.914 107.4 112.916 106.514 112.918 105.626H115.704V108.287C114.774 108.287 113.844 108.287 112.914 108.287V108.288Z" fill="#2E2E51"/>
<path d="M56.3858 46.3809V54.3732H48.3695V46.3809H56.3858Z" fill="#2E2E51"/>
<path d="M107.63 46.3699H115.621V54.3731H107.63V46.3699Z" fill="#2E2E51"/>
<path d="M48.3575 113.633V105.645H56.3702V113.633H48.3575Z" fill="#2E2E51"/>
</g>
</g>
<defs>
<filter id="filter0_d_5938_23926" x="0" y="0" width="168" height="168" filterUnits="userSpaceOnUse" color-interpolation-filters="sRGB">
<feFlood flood-opacity="0" result="BackgroundImageFix"/>
<feColorMatrix in="SourceAlpha" type="matrix" values="0 0 0 0 0 0 0 0 0 0 0 0 0 0 0 0 0 0 127 0" result="hardAlpha"/>
<feOffset dx="2" dy="4"/>
<feGaussianBlur stdDeviation="7.5"/>
<feComposite in2="hardAlpha" operator="out"/>
<feColorMatrix type="matrix" values="0 0 0 0 0.288385 0 0 0 0 0.339471 0 0 0 0 0.470833 0 0 0 0.2 0"/>
<feBlend mode="normal" in2="BackgroundImageFix" result="effect1_dropShadow_5938_23926"/>
<feBlend mode="normal" in="SourceGraphic" in2="effect1_dropShadow_5938_23926" result="shape"/>
</filter>
<clipPath id="clip0_5938_23926">
<rect width="78" height="78" fill="white" transform="translate(43 41)"/>
</clipPath>
</defs>
</svg>
